<svg xmlns="http://www.w3.org/2000/svg" xmlns:xlink="http://www.w3.org/1999/xlink" viewBox="0 0 450 450"><defs><style>.cls-1{fill:#004777;}.cls-2{fill:#02a5e2;}.cls-3{mask:url(#mask);}.cls-4{fill:red;}.cls-5{fill:#fe0000;}.cls-6{fill:#fd0101;}.cls-7{fill:#fc0101;}.cls-8{fill:#fb0102;}.cls-9{fill:#fa0102;}.cls-10{fill:#f90203;}.cls-11{fill:#f80203;}.cls-12{fill:#f70204;}.cls-13{fill:#f60304;}.cls-14{fill:#f50305;}.cls-15{fill:#f40305;}.cls-16{fill:#f30306;}.cls-17{fill:#f20406;}.cls-18{fill:#f10407;}.cls-19{fill:#f00407;}.cls-20{fill:#ef0407;}.cls-21{fill:#ee0508;}.cls-22{fill:#ed0508;}.cls-23{fill:#ec0509;}.cls-24{fill:#eb0609;}.cls-25{fill:#ea060a;}.cls-26{fill:#e9060a;}.cls-27{fill:#e8060b;}.cls-28{fill:#e7070b;}.cls-29{fill:#e6070c;}.cls-30{fill:#e5070c;}.cls-31{fill:#e4080d;}.cls-32{fill:#e3080d;}.cls-33{fill:#e2080e;}.cls-34{fill:#e1080e;}.cls-35{fill:#e0090e;}.cls-36{fill:#df090f;}.cls-37{fill:#de090f;}.cls-38{fill:#dd0910;}.cls-39{fill:#dc0a10;}.cls-40{fill:#db0a11;}.cls-41{fill:#da0a11;}.cls-42{fill:#d90b12;}.cls-43{fill:#d80b12;}.cls-44{fill:#d70b13;}.cls-45{fill:#d60b13;}.cls-46{fill:#d50c14;}.cls-47{fill:#d40c14;}.cls-48{fill:#d30c15;}.cls-49{fill:#d20d15;}.cls-50{fill:#d10d15;}.cls-51{fill:#d00d16;}.cls-52{fill:#cf0d16;}.cls-53{fill:#ce0e17;}.cls-54{fill:#cd0e17;}.cls-55{fill:#cc0e18;}.cls-56{fill:#cb0e18;}.cls-57{fill:#ca0f19;}.cls-58{fill:#c90f19;}.cls-59{fill:#c80f1a;}.cls-60{fill:#c7101a;}.cls-61{fill:#c6101b;}.cls-62{fill:#c5101b;}.cls-63{fill:#c4101c;}.cls-64{fill:#c3111c;}.cls-65{fill:#c2111c;}.cls-66{fill:#c1111d;}.cls-67{fill:#c0121d;}.cls-68{fill:#bf121e;}.cls-69{fill:#be121e;}.cls-70{fill:#bd121f;}.cls-71{fill:#bc131f;}.cls-72{fill:#bb1320;}.cls-73{fill:#ba1320;}.cls-74{fill:#b91321;}.cls-75{fill:#b81421;}.cls-76{fill:#b71422;}.cls-77{fill:#b61422;}.cls-78{fill:#b51523;}.cls-79{fill:#b41523;}.cls-80{fill:#b31523;}.cls-81{fill:#b21524;}.cls-82{fill:#b11624;}.cls-83{fill:#b01625;}.cls-84{fill:#af1625;}.cls-85{fill:#ae1726;}.cls-86{fill:#ad1726;}.cls-87{fill:#ac1727;}.cls-88{fill:#ab1727;}.cls-89{fill:#aa1828;}.cls-90{fill:#a91828;}.cls-91{fill:#a81829;}.cls-92{fill:#a71929;}.cls-93{fill:#a6192a;}.cls-94{fill:#a5192a;}.cls-95{fill:#a4192a;}.cls-96{fill:#a31a2b;}.cls-97{fill:#a21a2b;}.cls-98{fill:#a11a2c;}.cls-99{fill:#a01a2c;}.cls-100{fill:#9f1b2d;}.cls-101{fill:#9e1b2d;}.cls-102{fill:#9d1b2e;}.cls-103{fill:#9c1c2e;}.cls-104{fill:#9b1c2f;}.cls-105{fill:#9a1c2f;}.cls-106{fill:#991c30;}.cls-107{fill:#981d30;}.cls-108{fill:#971d31;}.cls-109{fill:#961d31;}.cls-110{fill:#951e31;}.cls-111{fill:#941e32;}.cls-112{fill:#931e32;}.cls-113{fill:#921e33;}.cls-114{fill:#911f33;}.cls-115{fill:#901f34;}.cls-116{fill:#8f1f34;}.cls-117{fill:#8e1f35;}.cls-118{fill:#8d2035;}.cls-119{fill:#8c2036;}.cls-120{fill:#8b2036;}.cls-121{fill:#8a2137;}.cls-122{fill:#892137;}.cls-123{fill:#882138;}.cls-124{fill:#872138;}.cls-125{fill:#862238;}.cls-126{fill:#852239;}.cls-127{fill:#842239;}.cls-128{fill:#83233a;}.cls-129{fill:#82233a;}.cls-130{fill:#81233b;}.cls-131{fill:#80233b;}.cls-132{fill:#7f243c;}.cls-133{fill:#7e243c;}.cls-134{fill:#7d243d;}.cls-135{fill:#7c243d;}.cls-136{fill:#7b253e;}.cls-137{fill:#7a253e;}.cls-138{fill:#79253f;}.cls-139{fill:#78263f;}.cls-140{fill:#77263f;}.cls-141{fill:#762640;}.cls-142{fill:#752640;}.cls-143{fill:#742741;}.cls-144{fill:#732741;}.cls-145{fill:#722742;}.cls-146{fill:#712842;}.cls-147{fill:#702843;}.cls-148{fill:#6f2843;}.cls-149{fill:#6e2844;}.cls-150{fill:#6d2944;}.cls-151{fill:#6c2945;}.cls-152{fill:#6b2945;}.cls-153{fill:#6a2946;}.cls-154{fill:#692a46;}.cls-155{fill:#682a46;}.cls-156{fill:#672a47;}.cls-157{fill:#662b47;}.cls-158{fill:#652b48;}.cls-159{fill:#642b48;}.cls-160{fill:#632b49;}.cls-161{fill:#622c49;}.cls-162{fill:#612c4a;}.cls-163{fill:#602c4a;}.cls-164{fill:#5f2d4b;}.cls-165{fill:#5e2d4b;}.cls-166{fill:#5d2d4c;}.cls-167{fill:#5c2d4c;}.cls-168{fill:#5b2e4d;}.cls-169{fill:#5a2e4d;}.cls-170{fill:#592e4d;}.cls-171{fill:#582e4e;}.cls-172{fill:#572f4e;}.cls-173{fill:#562f4f;}.cls-174{fill:#552f4f;}.cls-175{fill:#543050;}.cls-176{fill:#533050;}.cls-177{fill:#523051;}.cls-178{fill:#513051;}.cls-179{fill:#503152;}.cls-180{fill:#4f3152;}.cls-181{fill:#4e3153;}.cls-182{fill:#4d3253;}.cls-183{fill:#4c3254;}.cls-184{fill:#4b3254;}.cls-185{fill:#4a3254;}.cls-186{fill:#493355;}.cls-187{fill:#483355;}.cls-188{fill:#473356;}.cls-189{fill:#463456;}.cls-190{fill:#453457;}.cls-191{fill:#443457;}.cls-192{fill:#433458;}.cls-193{fill:#423558;}.cls-194{fill:#413559;}.cls-195{fill:#403559;}.cls-196{fill:#3f355a;}.cls-197{fill:#3e365a;}.cls-198{fill:#3d365b;}.cls-199{fill:#3c365b;}.cls-200{fill:#3b375b;}.cls-201{fill:#3a375c;}.cls-202{fill:#39375c;}.cls-203{fill:#38375d;}.cls-204{fill:#37385d;}.cls-205{fill:#36385e;}.cls-206{fill:#35385e;}.cls-207{fill:#34395f;}.cls-208{fill:#33395f;}.cls-209{fill:#323960;}.cls-210{fill:#313960;}.cls-211{fill:#303a61;}.cls-212{fill:#2f3a61;}.cls-213{fill:#2e3a62;}.cls-214{fill:#2d3a62;}.cls-215{fill:#2c3b62;}.cls-216{fill:#2b3b63;}.cls-217{fill:#2a3b63;}.cls-218{fill:#293c64;}.cls-219{fill:#283c64;}.cls-220{fill:#273c65;}.cls-221{fill:#263c65;}.cls-222{fill:#253d66;}.cls-223{fill:#243d66;}.cls-224{fill:#233d67;}.cls-225{fill:#223e67;}.cls-226{fill:#213e68;}.cls-227{fill:#203e68;}.cls-228{fill:#1f3e69;}.cls-229{fill:#1e3f69;}.cls-230{fill:#1d3f69;}.cls-231{fill:#1c3f6a;}.cls-232{fill:#1b3f6a;}.cls-233{fill:#1a406b;}.cls-234{fill:#19406b;}.cls-235{fill:#18406c;}.cls-236{fill:#17416c;}.cls-237{fill:#16416d;}.cls-238{fill:#15416d;}.cls-239{fill:#14416e;}.cls-240{fill:#13426e;}.cls-241{fill:#12426f;}.cls-242{fill:#11426f;}.cls-243{fill:#104370;}.cls-244{fill:#0f4370;}.cls-245{fill:#0e4370;}.cls-246{fill:#0d4371;}.cls-247{fill:#0c4471;}.cls-248{fill:#0b4472;}.cls-249{fill:#0a4472;}.cls-250{fill:#094473;}.cls-251{fill:#084573;}.cls-252{fill:#074574;}.cls-253{fill:#064574;}.cls-254{fill:#054675;}.cls-255{fill:#044675;}.cls-256{fill:#034676;}.cls-257{fill:#024676;}.cls-258{fill:#014777;}.cls-259{filter:url(#luminosity-invert);}</style><filter id="luminosity-invert" filterUnits="userSpaceOnUse" color-interpolation-filters="sRGB"><feColorMatrix values="-1 0 0 0 1 0 -1 0 0 1 0 0 -1 0 1 0 0 0 1 0"/></filter><mask id="mask" x="105.87" y="233.69" width="360.13" height="346.99" maskUnits="userSpaceOnUse"><g class="cls-259"><path class="cls-1" d="M416.3,403.06h44.05a5.65,5.65,0,0,1,0,11.3H416.3a5.65,5.65,0,0,1,0-11.3Z"/><path class="cls-1" d="M127.15,402.5h44a5.65,5.65,0,0,1,0,11.3h-44a5.65,5.65,0,0,1,0-11.3Z"/><path class="cls-1" d="M416,419.11l43.68,5.75a5.65,5.65,0,0,1-1.48,11.2l-43.67-5.75a5.65,5.65,0,0,1,1.47-11.2Z"/><path class="cls-1" d="M129.35,380.8,173,386.55a5.65,5.65,0,0,1-1.47,11.2L127.87,392a5.65,5.65,0,0,1,1.48-11.2Z"/><path class="cls-1" d="M413.51,435l42.55,11.4a5.65,5.65,0,1,1-2.92,10.91l-42.55-11.4A5.65,5.65,0,0,1,413.51,435Z"/><path class="cls-1" d="M134.36,359.58,176.91,371A5.65,5.65,0,0,1,174,381.89l-42.55-11.4a5.65,5.65,0,1,1,2.92-10.91Z"/><path class="cls-1" d="M409,450.37l40.69,16.86a5.64,5.64,0,1,1-4.32,10.43l-40.7-16.85A5.65,5.65,0,0,1,409,450.37Z"/><path class="cls-1" d="M142.1,339.2l40.7,16.85a5.65,5.65,0,0,1-4.33,10.44l-40.69-16.86a5.64,5.64,0,1,1,4.32-10.43Z"/><path class="cls-1" d="M152.43,320l38.15,22a5.65,5.65,0,1,1-5.65,9.78l-38.14-22a5.65,5.65,0,0,1,5.64-9.79Z"/><path class="cls-1" d="M165.19,302.3l34.94,26.82a5.65,5.65,0,1,1-6.87,9l-34.95-26.81a5.65,5.65,0,0,1,6.88-9Z"/><path class="cls-1" d="M180.14,286.43l31.15,31.15a5.65,5.65,0,1,1-8,8l-31.15-31.15a5.65,5.65,0,1,1,8-8Z"/><path class="cls-1" d="M197,272.65l26.82,34.94a5.65,5.65,0,0,1-9,6.88l-26.82-35a5.65,5.65,0,1,1,9-6.87Z"/><path class="cls-1" d="M215.58,261.18l22,38.15a5.65,5.65,0,1,1-9.78,5.65l-22-38.15a5.65,5.65,0,0,1,9.78-5.65Z"/><path class="cls-1" d="M235.47,252.24l16.86,40.7a5.65,5.65,0,1,1-10.44,4.32L225,256.56a5.64,5.64,0,1,1,10.43-4.32Z"/><path class="cls-1" d="M256.36,246l11.4,42.55a5.65,5.65,0,1,1-10.91,2.92l-11.4-42.55A5.65,5.65,0,0,1,256.36,246Z"/><path class="cls-1" d="M277.88,242.48l5.75,43.67a5.65,5.65,0,1,1-11.2,1.48L266.68,244a5.65,5.65,0,0,1,11.2-1.47Z"/><path class="cls-1" d="M299.68,241.83v44a5.65,5.65,0,0,1-11.3,0v-44a5.65,5.65,0,0,1,11.3,0Z"/><path class="cls-1" d="M321.38,244l-5.75,43.67a5.65,5.65,0,0,1-11.2-1.47l5.75-43.68a5.65,5.65,0,0,1,11.2,1.48Z"/><path class="cls-1" d="M342.6,249l-11.4,42.55a5.65,5.65,0,0,1-10.91-2.92l11.4-42.55A5.65,5.65,0,1,1,342.6,249Z"/><path class="cls-1" d="M363,256.78l-16.85,40.7a5.65,5.65,0,0,1-10.44-4.33l16.86-40.69A5.64,5.64,0,1,1,363,256.78Z"/><path class="cls-1" d="M382.19,267.11l-22,38.15a5.65,5.65,0,1,1-9.78-5.65l22-38.14a5.65,5.65,0,0,1,9.79,5.64Z"/><path class="cls-1" d="M399.88,279.87l-26.82,34.94a5.65,5.65,0,1,1-9-6.87L390.91,273a5.65,5.65,0,0,1,9,6.88Z"/><path class="cls-1" d="M415.75,294.82,384.6,326a5.65,5.65,0,0,1-8-8l31.15-31.15a5.65,5.65,0,0,1,8,8Z"/><path class="cls-1" d="M429.53,311.71l-34.94,26.82a5.65,5.65,0,0,1-6.88-9l35-26.82a5.65,5.65,0,1,1,6.87,9Z"/><path class="cls-1" d="M441,330.26l-38.15,22a5.65,5.65,0,1,1-5.65-9.78l38.15-22a5.65,5.65,0,0,1,5.65,9.78Z"/><path class="cls-1" d="M182.58,460.29l-40.7,16.85a5.64,5.64,0,1,1-4.32-10.43l40.7-16.86a5.65,5.65,0,0,1,4.32,10.44Z"/><path class="cls-1" d="M449.94,350.15,409.24,367a5.65,5.65,0,1,1-4.32-10.44l40.7-16.85a5.64,5.64,0,1,1,4.32,10.43Z"/><path class="cls-1" d="M176.76,445.33l-42.55,11.4a5.65,5.65,0,0,1-2.92-10.91l42.55-11.4a5.65,5.65,0,1,1,2.92,10.91Z"/><path class="cls-1" d="M456.21,371l-42.55,11.4a5.65,5.65,0,1,1-2.92-10.91l42.55-11.4A5.65,5.65,0,0,1,456.21,371Z"/><path class="cls-1" d="M173,429.75l-43.68,5.75a5.65,5.65,0,0,1-1.47-11.2l43.67-5.75a5.65,5.65,0,1,1,1.48,11.2Z"/><path class="cls-1" d="M459.7,392.56,416,398.31a5.65,5.65,0,0,1-1.48-11.2l43.68-5.75a5.65,5.65,0,0,1,1.47,11.2Z"/><path class="cls-1" d="M171.2,413.8h-44a5.65,5.65,0,0,1,0-11.3h44a5.65,5.65,0,0,1,0,11.3Z"/><path class="cls-1" d="M460.35,414.36H416.3a5.65,5.65,0,0,1,0-11.3h44.05a5.65,5.65,0,0,1,0,11.3Z"/></g></mask></defs><title>Artboard 1</title><g id="BG"><rect class="cls-2" width="450" height="450"/></g><g id="Layer_3" data-name="Layer 3"><g class="cls-3"><polygon class="cls-4" points="326.9 304.16 357.13 242.41 377.6 251.84 347.37 313.59 326.9 304.16"/><polygon class="cls-4" points="323.44 303.4 352.9 241.3 373.49 250.49 344.02 312.59 323.44 303.4"/><polygon class="cls-4" points="320.03 302.72 348.71 240.27 369.4 249.21 340.72 311.66 320.03 302.72"/><polygon class="cls-4" points="316.68 302.11 344.56 239.32 365.36 248 337.48 310.79 316.68 302.11"/><polygon class="cls-4" points="313.38 301.58 340.43 238.44 361.34 246.86 334.29 310 313.38 301.58"/><polygon class="cls-4" points="310.14 301.12 336.34 237.64 357.36 245.79 331.16 309.26 310.14 301.12"/><polygon class="cls-4" points="306.95 300.73 332.29 236.92 353.41 244.79 328.08 308.6 306.95 300.73"/><polygon class="cls-4" points="303.82 300.41 328.27 236.27 349.5 243.85 325.05 307.99 303.82 300.41"/><polygon class="cls-4" points="300.74 300.16 324.28 235.69 345.61 242.99 322.07 307.45 300.74 300.16"/><polygon class="cls-4" points="297.71 299.97 320.32 235.19 341.75 242.19 319.15 306.97 297.71 299.97"/><polygon class="cls-4" points="294.74 299.86 316.4 234.76 337.93 241.46 316.28 306.55 294.74 299.86"/><polygon class="cls-4" points="291.82 299.8 312.51 234.41 334.14 240.79 313.45 306.18 291.82 299.8"/><polygon class="cls-4" points="288.96 299.81 308.65 234.13 330.38 240.19 310.68 305.88 288.96 299.81"/><polygon class="cls-4" points="286.15 299.88 304.83 233.91 326.64 239.65 307.96 305.62 286.15 299.88"/><polygon class="cls-4" points="283.39 300.02 301.04 233.78 322.94 239.18 305.29 305.43 283.39 300.02"/><polygon class="cls-4" points="280.68 300.21 297.29 233.71 319.27 238.78 302.66 305.28 280.68 300.21"/><polygon class="cls-4" points="278.02 300.46 293.57 233.71 315.63 238.44 300.09 305.18 278.02 300.46"/><polygon class="cls-4" points="275.42 300.76 289.88 233.78 312.02 238.16 297.56 305.14 275.42 300.76"/><polygon class="cls-4" points="272.86 301.12 286.23 233.92 308.44 237.94 295.07 305.14 272.86 301.12"/><polygon class="cls-4" points="270.36 301.53 282.61 234.12 304.89 237.79 292.63 305.2 270.36 301.53"/><polygon class="cls-4" points="267.9 301.99 279.03 234.4 301.37 237.7 290.24 305.29 267.9 301.99"/><polygon class="cls-4" points="265.49 302.5 275.48 234.74 297.88 237.67 287.88 305.44 265.49 302.5"/><polygon class="cls-4" points="263.13 303.06 271.97 235.14 294.42 237.71 285.58 305.63 263.13 303.06"/><polygon class="cls-4" points="260.82 303.67 268.5 235.62 290.99 237.8 283.31 305.86 260.82 303.67"/><polygon class="cls-4" points="258.55 304.32 265.06 236.15 287.59 237.96 281.08 306.13 258.55 304.32"/><polygon class="cls-4" points="256.33 305.02 261.67 236.75 284.23 238.18 278.89 306.45 256.33 305.02"/><polygon class="cls-4" points="254.15 305.76 258.31 237.41 280.89 238.46 276.74 306.8 254.15 305.76"/><polygon class="cls-4" points="252.02 306.54 254.99 238.13 277.6 238.79 274.63 307.2 252.02 306.54"/><polygon class="cls-4" points="249.93 307.36 251.7 238.91 274.33 239.19 272.56 307.63 249.93 307.36"/><polygon class="cls-4" points="273.18 300.2 289.44 233.69 311.5 238.77 295.24 305.28 273.18 300.2"/><polygon class="cls-5" points="269.56 239.83 269.71 308.29 247.09 308.64 246.94 240.18 269.56 239.83"/><polygon class="cls-6" points="268.02 240.04 268.91 308.47 246.3 309.06 245.42 240.63 268.02 240.04"/><polygon class="cls-7" points="266.5 240.26 268.11 308.67 245.52 309.49 243.91 241.09 266.5 240.26"/><polygon class="cls-8" points="264.98 240.5 267.33 308.87 244.75 309.93 242.41 241.56 264.98 240.5"/><polygon class="cls-9" points="263.47 240.75 266.54 309.07 243.99 310.37 240.92 242.05 263.47 240.75"/><polygon class="cls-10" points="261.96 241.01 265.77 309.28 243.24 310.82 239.43 242.55 261.96 241.01"/><polygon class="cls-11" points="260.46 241.28 264.99 309.49 242.49 311.27 237.96 243.06 260.46 241.28"/><polygon class="cls-12" points="258.97 241.57 264.23 309.71 241.75 311.73 236.5 243.59 258.97 241.57"/><polygon class="cls-13" points="257.48 241.87 263.47 309.94 241.03 312.19 235.04 244.12 257.48 241.87"/><polygon class="cls-14" points="256 242.18 262.71 310.17 240.3 312.66 233.6 244.67 256 242.18"/><polygon class="cls-15" points="254.53 242.51 261.96 310.41 239.59 313.13 232.16 245.23 254.53 242.51"/><polygon class="cls-16" points="253.07 242.85 261.21 310.65 238.88 313.6 230.73 245.8 253.07 242.85"/><polygon class="cls-17" points="251.61 243.2 260.47 310.9 238.18 314.08 229.32 246.38 251.61 243.2"/><polygon class="cls-18" points="250.16 243.56 259.74 311.15 237.49 314.56 227.91 246.98 250.16 243.56"/><polygon class="cls-19" points="248.72 243.94 259 311.4 236.8 315.05 226.51 247.59 248.72 243.94"/><polygon class="cls-20" points="247.28 244.32 258.27 311.67 236.12 315.55 225.12 248.2 247.28 244.32"/><polygon class="cls-21" points="245.85 244.72 257.55 311.94 235.44 316.04 223.74 248.83 245.85 244.72"/><polygon class="cls-22" points="244.43 245.13 256.83 312.21 234.78 316.54 222.37 249.47 244.43 245.13"/><polygon class="cls-23" points="243.02 245.56 256.12 312.49 234.12 317.05 221.01 250.12 243.02 245.56"/><polygon class="cls-24" points="241.61 246 255.41 312.77 233.46 317.56 219.66 250.78 241.61 246"/><polygon class="cls-25" points="240.21 246.44 254.71 313.06 232.82 318.07 218.32 251.45 240.21 246.44"/><polygon class="cls-26" points="238.82 246.9 254 313.35 232.18 318.58 217 252.13 238.82 246.9"/><polygon class="cls-27" points="237.44 247.37 253.31 313.65 231.54 319.1 215.67 252.83 237.44 247.37"/><polygon class="cls-28" points="236.06 247.85 252.61 313.95 230.91 319.63 214.36 253.53 236.06 247.85"/><polygon class="cls-29" points="234.7 248.35 251.92 314.26 230.29 320.15 213.06 254.24 234.7 248.35"/><polygon class="cls-30" points="233.34 248.85 251.24 314.57 229.67 320.68 211.77 254.96 233.34 248.85"/><polygon class="cls-31" points="231.99 249.37 250.55 314.89 229.06 321.22 210.49 255.69 231.99 249.37"/><polygon class="cls-32" points="230.65 249.89 249.88 315.21 228.45 321.75 209.22 256.44 230.65 249.89"/><polygon class="cls-33" points="229.31 250.43 249.2 315.54 227.85 322.29 207.96 257.19 229.31 250.43"/><polygon class="cls-34" points="227.98 250.98 248.53 315.87 227.26 322.84 206.71 257.94 227.98 250.98"/><polygon class="cls-35" points="226.67 251.54 247.86 316.21 226.67 323.38 205.47 258.71 226.67 251.54"/><polygon class="cls-36" points="225.36 252.11 247.2 316.55 226.08 323.94 204.24 259.49 225.36 252.11"/><polygon class="cls-37" points="224.06 252.69 246.54 316.9 225.5 324.49 203.02 260.27 224.06 252.69"/><polygon class="cls-38" points="222.76 253.28 245.88 317.25 224.93 325.05 201.81 261.07 222.76 253.28"/><polygon class="cls-39" points="221.48 253.88 245.22 317.61 224.36 325.61 200.61 261.87 221.48 253.88"/><polygon class="cls-40" points="220.2 254.49 244.57 317.97 223.79 326.17 199.42 262.68 220.2 254.49"/><polygon class="cls-41" points="218.93 255.1 243.93 318.34 223.23 326.74 198.24 263.5 218.93 255.1"/><polygon class="cls-42" points="217.67 255.73 243.28 318.71 222.68 327.31 197.07 264.33 217.67 255.73"/><polygon class="cls-43" points="216.42 256.37 242.64 319.09 222.12 327.88 195.91 265.16 216.42 256.37"/><polygon class="cls-44" points="215.18 257.02 242 319.47 221.58 328.45 194.76 266 215.18 257.02"/><polygon class="cls-45" points="213.95 257.68 241.37 319.86 221.04 329.03 193.62 266.85 213.95 257.68"/><polygon class="cls-46" points="212.72 258.34 240.73 320.25 220.5 329.62 192.49 267.71 212.72 258.34"/><polygon class="cls-47" points="211.5 259.02 240.1 320.65 219.97 330.2 191.37 268.57 211.5 259.02"/><polygon class="cls-48" points="210.3 259.7 239.48 321.05 219.44 330.79 190.25 269.44 210.3 259.7"/><polygon class="cls-49" points="209.1 260.39 238.86 321.46 218.91 331.38 189.15 270.32 209.1 260.39"/><polygon class="cls-50" points="207.91 261.1 238.24 321.87 218.39 331.97 188.06 271.2 207.91 261.1"/><polygon class="cls-51" points="206.73 261.81 237.62 322.28 217.87 332.57 186.98 272.09 206.73 261.81"/><polygon class="cls-52" points="205.55 262.52 237 322.7 217.36 333.17 185.91 272.99 205.55 262.52"/><polygon class="cls-53" points="204.39 263.25 236.39 323.13 216.85 333.77 184.85 273.89 204.39 263.25"/><polygon class="cls-54" points="203.24 263.98 235.79 323.56 216.35 334.37 183.8 274.8 203.24 263.98"/><polygon class="cls-55" points="202.09 264.73 235.18 323.99 215.85 334.98 182.76 275.71 202.09 264.73"/><polygon class="cls-56" points="200.95 265.48 234.58 324.43 215.35 335.59 181.72 276.63 200.95 265.48"/><polygon class="cls-57" points="199.82 266.23 233.98 324.88 214.86 336.2 180.7 277.56 199.82 266.23"/><polygon class="cls-58" points="198.7 267 233.38 325.32 214.37 336.82 179.69 278.49 198.7 267"/><polygon class="cls-59" points="197.59 267.77 232.79 325.78 213.88 337.44 178.68 279.43 197.59 267.77"/><polygon class="cls-60" points="196.49 268.55 232.2 326.24 213.4 338.06 177.69 280.37 196.49 268.55"/><polygon class="cls-61" points="195.39 269.33 231.61 326.7 212.92 338.68 176.71 281.31 195.39 269.33"/><polygon class="cls-62" points="194.31 270.13 231.03 327.17 212.45 339.31 175.73 282.27 194.31 270.13"/><polygon class="cls-63" points="193.23 270.93 230.44 327.64 211.98 339.93 174.76 283.22 193.23 270.93"/><polygon class="cls-64" points="192.16 271.73 229.86 328.11 211.51 340.56 173.81 284.18 192.16 271.73"/><polygon class="cls-65" points="191.1 272.54 229.29 328.59 211.04 341.2 172.86 285.15 191.1 272.54"/><polygon class="cls-66" points="190.05 273.36 228.71 329.08 210.58 341.83 171.92 286.12 190.05 273.36"/><polygon class="cls-67" points="189.01 274.19 228.14 329.56 210.13 342.47 171 287.09 189.01 274.19"/><polygon class="cls-68" points="187.98 275.02 227.57 330.06 209.67 343.11 170.08 288.07 187.98 275.02"/><polygon class="cls-69" points="186.96 275.86 227.01 330.56 209.22 343.75 169.16 289.05 186.96 275.86"/><polygon class="cls-70" points="185.94 276.7 226.45 331.06 208.77 344.4 168.26 290.04 185.94 276.7"/><polygon class="cls-71" points="184.93 277.55 225.89 331.56 208.33 345.05 167.37 291.03 184.93 277.55"/><polygon class="cls-72" points="183.93 278.4 225.33 332.07 207.89 345.69 166.49 292.02 183.93 278.4"/><polygon class="cls-73" points="182.94 279.26 224.78 332.59 207.45 346.35 165.61 293.02 182.94 279.26"/><polygon class="cls-74" points="181.96 280.12 224.23 333.11 207.02 347 164.75 294.02 181.96 280.12"/><polygon class="cls-75" points="180.99 280.99 223.68 333.63 206.59 347.66 163.89 295.02 180.99 280.99"/><polygon class="cls-76" points="180.03 281.87 223.14 334.15 206.16 348.31 163.04 296.03 180.03 281.87"/><polygon class="cls-77" points="179.07 282.75 222.6 334.68 205.73 348.98 162.2 297.04 179.07 282.75"/><polygon class="cls-78" points="178.12 283.63 222.06 335.22 205.31 349.64 161.37 298.05 178.12 283.63"/><polygon class="cls-79" points="177.18 284.52 221.52 335.75 204.89 350.3 160.55 299.06 177.18 284.52"/><polygon class="cls-80" points="176.25 285.41 220.99 336.3 204.48 350.97 159.74 300.08 176.25 285.41"/><polygon class="cls-81" points="175.33 286.31 220.46 336.84 204.06 351.64 158.93 301.1 175.33 286.31"/><polygon class="cls-82" points="174.41 287.21 219.94 337.39 203.66 352.31 158.14 302.12 174.41 287.21"/><polygon class="cls-83" points="173.51 288.11 219.41 337.94 203.25 352.98 157.35 303.15 173.51 288.11"/><polygon class="cls-84" points="172.61 289.02 218.89 338.5 202.85 353.65 156.57 304.18 172.61 289.02"/><polygon class="cls-85" points="171.72 289.93 218.38 339.06 202.45 354.33 155.8 305.2 171.72 289.93"/><polygon class="cls-86" points="170.84 290.85 217.86 339.62 202.05 355 155.03 306.24 170.84 290.85"/><polygon class="cls-87" points="169.97 291.77 217.35 340.19 201.66 355.68 154.28 307.27 169.97 291.77"/><polygon class="cls-88" points="169.1 292.69 216.84 340.75 201.27 356.36 153.53 308.3 169.1 292.69"/><polygon class="cls-89" points="168.25 293.62 216.34 341.33 200.88 357.05 152.79 309.34 168.25 293.62"/><polygon class="cls-90" points="167.4 294.55 215.84 341.9 200.5 357.73 152.06 310.38 167.4 294.55"/><polygon class="cls-91" points="166.56 295.48 215.34 342.48 200.12 358.42 151.33 311.42 166.56 295.48"/><polygon class="cls-92" points="165.72 296.42 214.84 343.06 199.74 359.1 150.62 312.46 165.72 296.42"/><polygon class="cls-93" points="164.9 297.36 214.35 343.65 199.36 359.79 149.91 313.5 164.9 297.36"/><polygon class="cls-94" points="164.08 298.3 213.86 344.24 198.99 360.48 149.21 314.54 164.08 298.3"/><polygon class="cls-95" points="163.27 299.24 213.37 344.83 198.62 361.17 148.52 315.59 163.27 299.24"/><polygon class="cls-96" points="162.47 300.19 212.89 345.42 198.26 361.86 147.83 316.63 162.47 300.19"/><polygon class="cls-97" points="161.67 301.14 212.41 346.01 197.89 362.56 147.16 317.68 161.67 301.14"/><polygon class="cls-98" points="160.89 302.09 211.94 346.61 197.53 363.25 146.49 318.73 160.89 302.09"/><polygon class="cls-99" points="160.11 303.04 211.46 347.21 197.18 363.94 145.82 319.77 160.11 303.04"/><polygon class="cls-100" points="159.34 304 210.99 347.82 196.82 364.64 145.17 320.82 159.34 304"/><polygon class="cls-101" points="158.57 304.95 210.53 348.42 196.47 365.34 144.52 321.87 158.57 304.95"/><polygon class="cls-102" points="157.82 305.91 210.06 349.03 196.12 366.04 143.88 322.92 157.82 305.91"/><polygon class="cls-103" points="157.07 306.87 209.6 349.64 195.78 366.74 143.25 323.97 157.07 306.87"/><polygon class="cls-104" points="156.33 307.83 209.15 350.25 195.44 367.44 142.62 325.02 156.33 307.83"/><polygon class="cls-105" points="155.59 308.8 208.69 350.87 195.1 368.14 142 326.07 155.59 308.8"/><polygon class="cls-106" points="154.87 309.76 208.24 351.49 194.76 368.84 141.39 327.12 154.87 309.76"/><polygon class="cls-107" points="154.15 310.73 207.79 352.11 194.43 369.54 140.78 328.17 154.15 310.73"/><polygon class="cls-108" points="153.44 311.7 207.35 352.73 194.1 370.24 140.19 329.21 153.44 311.7"/><polygon class="cls-109" points="152.73 312.66 206.91 353.35 193.78 370.95 139.6 330.26 152.73 312.66"/><polygon class="cls-110" points="152.03 313.63 206.47 353.97 193.45 371.65 139.01 331.31 152.03 313.63"/><polygon class="cls-111" points="151.34 314.6 206.04 354.6 193.13 372.36 138.44 332.36 151.34 314.6"/><polygon class="cls-112" points="150.66 315.57 205.61 355.23 192.81 373.06 137.86 333.41 150.66 315.57"/><polygon class="cls-113" points="149.98 316.55 205.18 355.85 192.5 373.76 137.3 334.46 149.98 316.55"/><polygon class="cls-114" points="149.31 317.52 204.76 356.48 192.19 374.47 136.74 335.5 149.31 317.52"/><polygon class="cls-115" points="148.65 318.49 204.34 357.12 191.88 375.17 136.19 336.55 148.65 318.49"/><polygon class="cls-116" points="148 319.46 203.92 357.75 191.57 375.88 135.65 337.59 148 319.46"/><polygon class="cls-117" points="147.35 320.44 203.51 358.38 191.27 376.58 135.11 338.64 147.35 320.44"/><polygon class="cls-118" points="146.71 321.41 203.1 359.02 190.97 377.29 134.58 339.68 146.71 321.41"/><polygon class="cls-119" points="146.07 322.38 202.69 359.65 190.68 377.99 134.06 340.72 146.07 322.38"/><polygon class="cls-120" points="145.44 323.35 202.29 360.29 190.38 378.7 133.54 341.76 145.44 323.35"/><polygon class="cls-121" points="144.82 324.33 201.89 360.93 190.09 379.4 133.03 342.8 144.82 324.33"/><polygon class="cls-122" points="144.21 325.3 201.49 361.56 189.8 380.11 132.52 343.84 144.21 325.3"/><polygon class="cls-123" points="143.6 326.27 201.1 362.2 189.52 380.81 132.02 344.88 143.6 326.27"/><polygon class="cls-124" points="142.99 327.24 200.71 362.84 189.24 381.51 131.53 345.91 142.99 327.24"/><polygon class="cls-125" points="142.4 328.21 200.32 363.48 188.96 382.22 131.04 346.95 142.4 328.21"/><polygon class="cls-126" points="141.81 329.18 199.94 364.12 188.69 382.92 130.56 347.98 141.81 329.18"/><polygon class="cls-127" points="141.23 330.15 199.56 364.76 188.41 383.62 130.08 349.01 141.23 330.15"/><polygon class="cls-128" points="140.65 331.12 199.18 365.4 188.14 384.32 129.61 350.04 140.65 331.12"/><polygon class="cls-129" points="140.08 332.09 198.81 366.05 187.88 385.02 129.15 351.06 140.08 332.09"/><polygon class="cls-130" points="139.52 333.06 198.44 366.69 187.61 385.72 128.69 352.09 139.52 333.06"/><polygon class="cls-131" points="138.96 334.02 198.07 367.33 187.35 386.42 128.24 353.11 138.96 334.02"/><polygon class="cls-132" points="138.41 334.98 197.71 367.97 187.1 387.11 127.8 354.13 138.41 334.98"/><polygon class="cls-133" points="137.86 335.95 197.35 368.61 186.84 387.81 127.36 355.15 137.86 335.95"/><polygon class="cls-134" points="137.32 336.91 196.99 369.25 186.59 388.5 126.92 356.16 137.32 336.91"/><polygon class="cls-135" points="136.79 337.87 196.64 369.89 186.34 389.2 126.5 357.18 136.79 337.87"/><polygon class="cls-136" points="136.26 338.83 196.29 370.53 186.1 389.89 126.07 358.19 136.26 338.83"/><polygon class="cls-137" points="135.75 339.78 195.94 371.17 185.85 390.58 125.66 359.19 135.75 339.78"/><polygon class="cls-138" points="135.23 340.74 195.6 371.81 185.62 391.27 125.24 360.2 135.23 340.74"/><polygon class="cls-139" points="134.72 341.69 195.26 372.44 185.38 391.96 124.84 361.2 134.72 341.69"/><polygon class="cls-140" points="134.22 342.64 194.93 373.08 185.15 392.64 124.44 362.2 134.22 342.64"/><polygon class="cls-141" points="133.72 343.59 194.59 373.72 184.91 393.33 124.04 363.2 133.72 343.59"/><rect class="cls-142" x="148.03" y="335.31" width="21.87" height="67.93" transform="translate(-242.61 350.03) rotate(-63.97)"/><rect class="cls-143" x="147.67" y="336.12" width="21.86" height="67.94" transform="translate(-243.64 352.23) rotate(-64.26)"/><rect class="cls-144" x="147.32" y="336.92" width="21.86" height="67.95" transform="translate(-244.66 354.43) rotate(-64.55)"/><rect class="cls-145" x="146.98" y="337.73" width="21.86" height="67.95" transform="translate(-245.67 356.63) rotate(-64.84)"/><rect class="cls-146" x="146.63" y="338.53" width="21.86" height="67.96" transform="translate(-246.67 358.83) rotate(-65.13)"/><rect class="cls-147" x="146.3" y="339.33" width="21.86" height="67.97" transform="translate(-247.66 361.02) rotate(-65.42)"/><rect class="cls-148" x="145.96" y="340.12" width="21.86" height="67.98" transform="translate(-248.64 363.2) rotate(-65.71)"/><rect class="cls-149" x="145.64" y="340.91" width="21.85" height="67.99" transform="translate(-249.61 365.39) rotate(-65.99)"/><rect class="cls-150" x="145.31" y="341.71" width="21.85" height="68" transform="translate(-250.58 367.57) rotate(-66.27)"/><rect class="cls-151" x="144.99" y="342.49" width="21.85" height="68.01" transform="translate(-251.53 369.74) rotate(-66.55)"/><rect class="cls-152" x="144.68" y="343.28" width="21.85" height="68.02" transform="translate(-252.48 371.91) rotate(-66.83)"/><rect class="cls-153" x="144.36" y="344.06" width="21.85" height="68.03" transform="translate(-253.42 374.08) rotate(-67.11)"/><rect class="cls-154" x="144.06" y="344.84" width="21.85" height="68.04" transform="translate(-254.35 376.25) rotate(-67.39)"/><rect class="cls-155" x="143.75" y="345.62" width="21.85" height="68.05" transform="translate(-255.26 378.41) rotate(-67.66)"/><rect class="cls-156" x="143.45" y="346.39" width="21.84" height="68.06" transform="translate(-256.17 380.56) rotate(-67.93)"/><rect class="cls-157" x="143.16" y="347.16" width="21.84" height="68.07" transform="translate(-257.07 382.72) rotate(-68.2)"/><rect class="cls-158" x="142.86" y="347.92" width="21.84" height="68.08" transform="translate(-257.97 384.87) rotate(-68.47)"/><rect class="cls-159" x="142.58" y="348.69" width="21.84" height="68.09" transform="translate(-258.85 387.01) rotate(-68.74)"/><rect class="cls-160" x="142.29" y="349.44" width="21.84" height="68.11" transform="translate(-259.72 389.15) rotate(-69.01)"/><rect class="cls-161" x="142.01" y="350.2" width="21.84" height="68.12" transform="translate(-260.58 391.29) rotate(-69.27)"/><rect class="cls-162" x="141.74" y="350.95" width="21.84" height="68.13" transform="translate(-261.43 393.42) rotate(-69.54)"/><rect class="cls-163" x="141.46" y="351.7" width="21.84" height="68.14" transform="translate(-262.28 395.55) rotate(-69.8)"/><rect class="cls-164" x="141.2" y="352.44" width="21.84" height="68.15" transform="translate(-263.11 397.67) rotate(-70.06)"/><rect class="cls-165" x="140.93" y="353.18" width="21.84" height="68.16" transform="translate(-263.93 399.79) rotate(-70.32)"/><rect class="cls-166" x="140.67" y="353.92" width="21.83" height="68.18" transform="translate(-264.75 401.91) rotate(-70.57)"/><rect class="cls-167" x="140.41" y="354.65" width="21.83" height="68.19" transform="matrix(0.33, -0.94, 0.94, 0.33, -265.55, 404.02)"/><rect class="cls-168" x="140.16" y="355.38" width="21.83" height="68.2" transform="translate(-266.34 406.13) rotate(-71.08)"/><rect class="cls-169" x="139.91" y="356.1" width="21.83" height="68.21" transform="translate(-267.13 408.23) rotate(-71.34)"/><rect class="cls-170" x="139.67" y="356.82" width="21.83" height="68.23" transform="translate(-267.9 410.33) rotate(-71.59)"/><rect class="cls-171" x="139.42" y="357.53" width="21.83" height="68.24" transform="translate(-268.66 412.42) rotate(-71.84)"/><rect class="cls-172" x="139.19" y="358.24" width="21.83" height="68.25" transform="translate(-269.41 414.51) rotate(-72.09)"/><rect class="cls-173" x="138.95" y="358.95" width="21.83" height="68.27" transform="translate(-270.16 416.6) rotate(-72.33)"/><rect class="cls-174" x="138.72" y="359.65" width="21.83" height="68.28" transform="translate(-270.89 418.68) rotate(-72.58)"/><rect class="cls-175" x="138.49" y="360.34" width="21.83" height="68.3" transform="translate(-271.61 420.75) rotate(-72.83)"/><rect class="cls-176" x="138.27" y="361.03" width="21.83" height="68.31" transform="translate(-272.32 422.82) rotate(-73.07)"/><rect class="cls-177" x="138.05" y="361.72" width="21.83" height="68.32" transform="translate(-273.02 424.89) rotate(-73.31)"/><rect class="cls-178" x="137.83" y="362.4" width="21.83" height="68.34" transform="matrix(0.28, -0.96, 0.96, 0.28, -273.71, 426.94)"/><rect class="cls-179" x="137.62" y="363.07" width="21.83" height="68.35" transform="translate(-274.38 429) rotate(-73.79)"/><rect class="cls-180" x="137.41" y="363.74" width="21.83" height="68.37" transform="translate(-275.05 431.05) rotate(-74.03)"/><rect class="cls-181" x="137.2" y="364.41" width="21.83" height="68.38" transform="translate(-275.71 433.09) rotate(-74.27)"/><rect class="cls-182" x="137" y="365.06" width="21.83" height="68.4" transform="translate(-276.35 435.13) rotate(-74.5)"/><rect class="cls-183" x="136.8" y="365.72" width="21.83" height="68.41" transform="translate(-276.99 437.17) rotate(-74.74)"/><rect class="cls-184" x="136.61" y="366.37" width="21.83" height="68.43" transform="translate(-277.61 439.19) rotate(-74.97)"/><rect class="cls-185" x="136.41" y="367.01" width="21.83" height="68.44" transform="translate(-278.22 441.21) rotate(-75.2)"/><rect class="cls-186" x="136.22" y="367.64" width="21.83" height="68.46" transform="translate(-278.82 443.23) rotate(-75.44)"/><rect class="cls-187" x="136.04" y="368.28" width="21.83" height="68.48" transform="translate(-279.41 445.24) rotate(-75.67)"/><rect class="cls-188" x="135.86" y="368.9" width="21.83" height="68.49" transform="translate(-279.99 447.25) rotate(-75.89)"/><rect class="cls-189" x="135.68" y="369.52" width="21.83" height="68.51" transform="translate(-280.55 449.25) rotate(-76.12)"/><rect class="cls-190" x="135.5" y="370.13" width="21.83" height="68.52" transform="translate(-281.11 451.24) rotate(-76.35)"/><rect class="cls-191" x="135.33" y="370.74" width="21.83" height="68.54" transform="translate(-281.65 453.22) rotate(-76.57)"/><rect class="cls-192" x="135.16" y="371.34" width="21.83" height="68.56" transform="translate(-282.18 455.2) rotate(-76.8)"/><rect class="cls-193" x="134.99" y="371.93" width="21.84" height="68.57" transform="translate(-282.7 457.18) rotate(-77.02)"/><rect class="cls-194" x="134.83" y="372.52" width="21.84" height="68.59" transform="translate(-283.21 459.15) rotate(-77.24)"/><rect class="cls-195" x="134.67" y="373.1" width="21.84" height="68.61" transform="translate(-283.7 461.11) rotate(-77.47)"/><rect class="cls-196" x="134.51" y="373.68" width="21.84" height="68.63" transform="translate(-284.19 463.06) rotate(-77.69)"/><rect class="cls-197" x="134.36" y="374.24" width="21.84" height="68.64" transform="translate(-284.66 465.01) rotate(-77.9)"/><rect class="cls-198" x="134.21" y="374.81" width="21.84" height="68.66" transform="translate(-285.12 466.95) rotate(-78.12)"/><rect class="cls-199" x="134.06" y="375.36" width="21.84" height="68.68" transform="translate(-285.56 468.88) rotate(-78.34)"/><rect class="cls-200" x="133.92" y="375.91" width="21.84" height="68.7" transform="translate(-286 470.81) rotate(-78.55)"/><rect class="cls-201" x="133.78" y="376.45" width="21.84" height="68.72" transform="translate(-286.42 472.73) rotate(-78.77)"/><rect class="cls-202" x="133.64" y="376.98" width="21.84" height="68.73" transform="translate(-286.83 474.64) rotate(-78.98)"/><rect class="cls-203" x="133.51" y="377.51" width="21.85" height="68.75" transform="translate(-287.23 476.54) rotate(-79.2)"/><rect class="cls-204" x="133.37" y="378.03" width="21.85" height="68.77" transform="translate(-287.61 478.44) rotate(-79.41)"/><rect class="cls-205" x="133.24" y="378.54" width="21.85" height="68.79" transform="translate(-287.98 480.33) rotate(-79.62)"/><rect class="cls-206" x="133.12" y="379.04" width="21.85" height="68.81" transform="translate(-288.34 482.21) rotate(-79.83)"/><rect class="cls-207" x="132.99" y="379.54" width="21.85" height="68.83" transform="translate(-288.69 484.08) rotate(-80.04)"/><rect class="cls-208" x="132.87" y="380.03" width="21.85" height="68.85" transform="translate(-289.02 485.95) rotate(-80.24)"/><rect class="cls-209" x="132.76" y="380.51" width="21.85" height="68.87" transform="translate(-289.35 487.81) rotate(-80.45)"/><rect class="cls-210" x="132.64" y="380.98" width="21.86" height="68.89" transform="translate(-289.65 489.66) rotate(-80.66)"/><rect class="cls-211" x="132.53" y="381.45" width="21.86" height="68.91" transform="translate(-289.95 491.5) rotate(-80.86)"/><rect class="cls-212" x="132.42" y="381.91" width="21.86" height="68.93" transform="translate(-290.23 493.33) rotate(-81.07)"/><rect class="cls-213" x="132.31" y="382.36" width="21.86" height="68.95" transform="translate(-290.5 495.15) rotate(-81.27)"/><rect class="cls-214" x="132.21" y="382.8" width="21.86" height="68.97" transform="translate(-290.75 496.96) rotate(-81.47)"/><rect class="cls-215" x="132.11" y="383.23" width="21.86" height="68.99" transform="translate(-291 498.77) rotate(-81.67)"/><rect class="cls-216" x="132.01" y="383.66" width="21.87" height="69.01" transform="translate(-291.22 500.57) rotate(-81.87)"/><rect class="cls-217" x="131.92" y="384.07" width="21.87" height="69.03" transform="translate(-291.44 502.35) rotate(-82.07)"/><rect class="cls-218" x="131.82" y="384.48" width="21.87" height="69.05" transform="translate(-291.64 504.13) rotate(-82.27)"/><rect class="cls-219" x="131.73" y="384.88" width="21.87" height="69.07" transform="translate(-291.83 505.9) rotate(-82.47)"/><rect class="cls-220" x="131.65" y="385.28" width="21.87" height="69.1" transform="translate(-292 507.66) rotate(-82.67)"/><rect class="cls-221" x="131.56" y="385.66" width="21.88" height="69.12" transform="translate(-292.17 509.41) rotate(-82.86)"/><rect class="cls-222" x="131.48" y="386.03" width="21.88" height="69.14" transform="translate(-292.31 511.15) rotate(-83.06)"/><rect class="cls-223" x="131.4" y="386.4" width="21.88" height="69.16" transform="translate(-292.45 512.88) rotate(-83.25)"/><rect class="cls-224" x="131.32" y="386.75" width="21.88" height="69.18" transform="translate(-292.57 514.6) rotate(-83.45)"/><rect class="cls-225" x="131.25" y="387.1" width="21.89" height="69.21" transform="translate(-292.67 516.3) rotate(-83.64)"/><rect class="cls-226" x="131.17" y="387.44" width="21.89" height="69.23" transform="translate(-292.76 518) rotate(-83.83)"/><rect class="cls-227" x="131.1" y="387.77" width="21.89" height="69.25" transform="translate(-292.84 519.69) rotate(-84.02)"/><rect class="cls-228" x="131.04" y="388.09" width="21.89" height="69.27" transform="translate(-292.9 521.37) rotate(-84.21)"/><rect class="cls-229" x="130.97" y="388.4" width="21.9" height="69.3" transform="matrix(0.1, -1, 1, 0.1, -292.95, 523.03)"/><rect class="cls-230" x="130.91" y="388.7" width="21.9" height="69.32" transform="translate(-292.99 524.69) rotate(-84.59)"/><rect class="cls-231" x="130.85" y="388.99" width="21.9" height="69.34" transform="translate(-293.01 526.33) rotate(-84.78)"/><rect class="cls-232" x="130.79" y="389.28" width="21.9" height="69.37" transform="translate(-293.02 527.97) rotate(-84.97)"/><rect class="cls-233" x="130.73" y="389.55" width="21.91" height="69.39" transform="translate(-293.01 529.59) rotate(-85.15)"/><rect class="cls-234" x="130.68" y="389.81" width="21.91" height="69.41" transform="translate(-292.99 531.2) rotate(-85.34)"/><rect class="cls-235" x="130.63" y="390.06" width="21.91" height="69.44" transform="translate(-292.95 532.79) rotate(-85.52)"/><rect class="cls-236" x="130.58" y="390.31" width="21.92" height="69.46" transform="translate(-292.9 534.38) rotate(-85.71)"/><rect class="cls-237" x="130.53" y="390.54" width="21.92" height="69.49" transform="translate(-292.83 535.95) rotate(-85.89)"/><rect class="cls-238" x="130.49" y="390.76" width="21.92" height="69.51" transform="matrix(0.07, -1, 1, 0.07, -292.75, 537.52)"/><rect class="cls-239" x="130.45" y="390.98" width="21.93" height="69.54" transform="translate(-292.66 539.06) rotate(-86.26)"/><rect class="cls-240" x="130.41" y="391.18" width="21.93" height="69.56" transform="translate(-292.54 540.6) rotate(-86.44)"/><rect class="cls-241" x="130.37" y="391.37" width="21.93" height="69.59" transform="translate(-292.42 542.13) rotate(-86.62)"/><rect class="cls-242" x="130.33" y="391.55" width="21.94" height="69.61" transform="translate(-292.28 543.64) rotate(-86.8)"/><rect class="cls-243" x="130.3" y="391.72" width="21.94" height="69.64" transform="translate(-292.12 545.14) rotate(-86.98)"/><rect class="cls-244" x="130.27" y="391.88" width="21.94" height="69.66" transform="translate(-291.95 546.62) rotate(-87.16)"/><rect class="cls-245" x="130.24" y="392.03" width="21.95" height="69.69" transform="translate(-291.77 548.09) rotate(-87.34)"/><rect class="cls-246" x="130.21" y="392.17" width="21.95" height="69.71" transform="translate(-291.57 549.55) rotate(-87.51)"/><rect class="cls-247" x="130.19" y="392.3" width="21.95" height="69.74" transform="translate(-291.35 550.99) rotate(-87.69)"/><rect class="cls-248" x="130.16" y="392.42" width="21.96" height="69.76" transform="translate(-291.12 552.43) rotate(-87.86)"/><rect class="cls-249" x="130.14" y="392.53" width="21.96" height="69.79" transform="translate(-290.88 553.84) rotate(-88.04)"/><rect class="cls-250" x="130.12" y="392.62" width="21.96" height="69.82" transform="translate(-290.62 555.24) rotate(-88.21)"/><rect class="cls-251" x="130.11" y="392.71" width="21.97" height="69.84" transform="translate(-290.34 556.63) rotate(-88.39)"/><rect class="cls-252" x="130.09" y="392.78" width="21.97" height="69.87" transform="translate(-290.05 558.01) rotate(-88.56)"/><rect class="cls-253" x="130.08" y="392.84" width="21.98" height="69.9" transform="translate(-289.74 559.37) rotate(-88.73)"/><rect class="cls-254" x="130.06" y="392.89" width="21.98" height="69.92" transform="translate(-289.42 560.71) rotate(-88.91)"/><rect class="cls-255" x="130.05" y="392.93" width="21.98" height="69.95" transform="translate(-289.08 562.04) rotate(-89.08)"/><rect class="cls-256" x="130.05" y="392.96" width="21.99" height="69.98" transform="translate(-288.72 563.35) rotate(-89.25)"/><rect class="cls-257" x="130.04" y="392.97" width="21.99" height="70.01" transform="translate(-288.35 564.65) rotate(-89.42)"/><rect class="cls-258" x="130.03" y="392.98" width="22" height="70.03" transform="translate(-287.97 565.94) rotate(-89.59)"/><rect class="cls-1" x="130.03" y="392.97" width="22" height="70.06" transform="translate(-287.57 567.21) rotate(-89.76)"/></g><path class="cls-1" d="M171.2,430.8h-44a5.65,5.65,0,0,1,0-11.3h44a5.65,5.65,0,0,1,0,11.3Z"/><rect class="cls-2" x="222" y="304" width="32" height="260" transform="translate(-196 672) rotate(-90)"/><rect class="cls-2" x="368" y="249" width="82" height="201"/><rect class="cls-2" x="353.34" y="268.25" width="28.09" height="50.33" transform="translate(136.38 -116.1) rotate(21.96)"/><path class="cls-1" d="M331.08,386l.16,0L309.1,270.89,289.65,391.94l.46-.06c-.14.31-.29.63-.43,1-5.44,13,0,27.68,12.18,32.78s26.46-1.31,31.91-14.32A25.86,25.86,0,0,0,331.08,386Z"/></g><g id="Layer_2" data-name="Layer 2"><path class="cls-1" d="M295,36H88L28,431h74s20.42-245.59,265-192C476.88,51.09,295,36,295,36Zm11.5,148.5c-76-33-181,54-181,54l28-153s128-10,142,0C346.48,121.91,306.5,184.5,306.5,184.5Z"/><path class="cls-1" d="M329.5,430.5c3-3.66,6.05-7.1,9.16-10.47l1.16-1.26,1.12-1.3,2.24-2.6c1.49-1.72,3-3.4,4.5-5.09s3-3.4,4.39-5.14,2.89-3.42,4.33-5.12c2.88-3.4,5.46-7,8.24-10.39,1.36-1.72,2.55-3.56,3.83-5.32.63-.89,1.28-1.76,1.91-2.64s1.29-1.75,1.84-2.67c2.27-3.66,4.79-7.16,6.75-10.92l1.57-2.76a25.6,25.6,0,0,0,1.5-2.77c.89-1.9,1.83-3.77,2.75-5.64.49-.93.84-1.9,1.23-2.85l1.16-2.88c.37-1,.82-1.9,1.16-2.86l.92-2.93a88.76,88.76,0,0,0,4.53-23.77,87.49,87.49,0,0,0-2.4-24.35c-.25-1-.53-2-.76-3s-.6-2-.89-3-.59-2-.95-3-.73-2-1.09-3l-.53-1.52-.63-1.49c-.41-1-.83-2-1.23-3s-.9-2-1.35-3-.91-2-1.42-3a159.71,159.71,0,0,0-14-23.19,64.55,64.55,0,0,1,11.8,7.78,87.51,87.51,0,0,1,10.35,9.86c.84.87,1.59,1.81,2.35,2.74s1.53,1.87,2.28,2.83,1.41,2,2.12,3l1.05,1.49,1,1.55c.65,1,1.31,2.07,1.94,3.12s1.16,2.16,1.75,3.25,1.19,2.17,1.69,3.29,1,2.27,1.49,3.42a81.65,81.65,0,0,1,6.48,29.39,87.09,87.09,0,0,1-4.51,29.95l-1.19,3.58c-.43,1.18-.95,2.31-1.43,3.46l-1.49,3.44a33.54,33.54,0,0,1-1.6,3.37c-1.18,2.17-2.34,4.35-3.55,6.5a34.79,34.79,0,0,1-1.95,3.13l-2,3-2,3c-.66,1-1.48,1.93-2.22,2.89-1.5,1.9-3,3.77-4.55,5.65-.74,1-1.58,1.81-2.4,2.69l-2.48,2.6c-1.69,1.7-3.3,3.48-5,5.1s-3.55,3.16-5.33,4.73-3.5,3.18-5.44,4.55-3.74,2.86-5.65,4.24-3.76,2.8-5.77,4-4,2.5-5.95,3.72l-3,1.81c-.5.3-1,.61-1.5.89l-1.56.81C338,426.55,333.78,428.63,329.5,430.5Z"/></g></svg>